<svg width="24" height="24" viewBox="0 0 24 24" fill="none" xmlns="http://www.w3.org/2000/svg">
<path d="M13.0945 20.2032L13.0945 18.3047C13.0945 18.1969 13.0477 18.0938 12.9656 18.0212L7.05234 12.8907L20.25 12.8907C20.3531 12.8907 20.4375 12.8063 20.4375 12.7032L20.4375 11.2969C20.4375 11.1938 20.3531 11.1094 20.25 11.1094L7.05234 11.1094L12.9656 5.97897C13.0477 5.90865 13.0945 5.80553 13.0945 5.69537L13.0945 3.79693C13.0945 3.63756 12.9047 3.55084 12.7852 3.65631L3.82031 11.4352C3.73919 11.5055 3.67413 11.5925 3.62954 11.6901C3.58496 11.7878 3.56188 11.8939 3.56188 12.0012C3.56188 12.1086 3.58496 12.2147 3.62954 12.3123C3.67413 12.41 3.73919 12.4969 3.82031 12.5672L12.7852 20.3438C12.907 20.4493 13.0945 20.3626 13.0945 20.2032Z" fill="#2F2F2F"/>
</svg>
