<svg width="32" height="32" viewBox="0 0 32 32" fill="none" xmlns="http://www.w3.org/2000/svg">
<path d="M19.3596 8.91358C20.0885 9.10415 20.7913 9.35459 21.4608 9.66407C22.726 8.70183 24.5364 8.79712 25.6921 9.95237C26.6808 10.9411 26.8929 12.4087 26.333 13.6046C26.9451 14.4219 27.4622 15.3178 27.8649 16.2706H27.8743C29.6563 16.2706 31.1002 17.7146 31.1002 19.4965C31.1002 20.9592 30.1307 22.1959 28.7942 22.5889C28.7083 23.3797 28.5438 24.1566 28.3055 24.945C28.1887 25.3335 27.8291 25.5859 27.4406 25.5859L4.8552 25.5908C4.41705 25.5908 4.05015 25.2785 3.96667 24.8664C3.72846 24.0613 3.57127 23.2799 3.49024 22.4744C2.32766 21.9886 1.51039 20.8379 1.51039 19.4965C1.51039 17.8192 2.79228 16.4421 4.42641 16.2849C4.83159 15.3271 5.34833 14.4292 5.96566 13.6071C5.40331 12.4111 5.61546 10.9411 6.60417 9.95237C7.75942 8.79712 9.57272 8.70427 10.8375 9.66651C11.507 9.35947 12.2098 9.10415 12.9367 8.91358C13.0939 7.27945 14.471 6 16.1479 6C17.8252 6 19.2024 7.27701 19.3596 8.91358ZM25.0963 14.9867C23.8527 15.749 22.2068 15.5918 21.1297 14.5147C20.222 13.6071 19.9696 12.2991 20.3674 11.165C19.9337 10.9818 19.4809 10.8266 19.0187 10.7004C18.4829 11.7416 17.3989 12.4518 16.1479 12.4518C14.8974 12.4518 13.8134 11.7392 13.2771 10.7004C12.8149 10.8266 12.367 10.9842 11.9313 11.165C12.3291 12.2967 12.0718 13.6095 11.1665 14.5147C10.0895 15.5918 8.44556 15.749 7.20195 14.9867C6.8375 15.5083 6.51825 16.0658 6.24908 16.6473C7.26873 17.1881 7.96221 18.2623 7.96221 19.4965C7.96221 21.0712 6.83261 22.384 5.34141 22.665C5.3915 23.0368 5.46032 23.4061 5.54624 23.7755H26.75C26.8429 23.3846 26.9141 22.9892 26.9642 22.5913C25.6253 22.2004 24.6484 20.9617 24.6484 19.4965C24.6484 18.3625 25.2323 17.3664 26.116 16.7923C25.8326 16.1562 25.4897 15.5511 25.0963 14.9867Z" fill="white"/>
</svg>
