<svg width="32" height="32" viewBox="0 0 32 32" fill="none" xmlns="http://www.w3.org/2000/svg">
<path d="M18.3266 28.7183C18.051 29.7579 17.0103 30 16 30C14.9898 30 13.949 29.7579 13.6735 28.7183C13.2639 27.1636 12.5714 23.2679 12.5714 21.4551C12.5714 19.5325 14.2397 19.0625 16 19.0625C17.7603 19.0625 19.4286 19.5325 19.4286 21.4551C19.4286 23.257 18.7391 27.1524 18.3266 28.7183ZM12.4036 17.7803C11.4022 16.7791 10.7987 15.3646 10.8616 13.81C10.9716 11.0908 13.1328 8.89057 15.7968 8.7853C18.7248 8.66958 21.1429 11.0676 21.1429 14.0312C21.1429 15.4984 20.5501 16.8267 19.5965 17.7802C19.4532 17.9235 19.4678 18.1622 19.6301 18.2826C20.129 18.6526 20.5119 19.1217 20.7676 19.6696C20.8609 19.8695 21.1157 19.9245 21.2738 19.7731C22.8181 18.2941 23.7677 16.1755 23.7119 13.8359C23.6126 9.66839 20.3051 6.27766 16.223 6.15948C11.868 6.03337 8.28571 9.61332 8.28571 14.0312C8.28571 16.2932 9.22493 18.3352 10.7259 19.7728C10.8841 19.9244 11.139 19.8696 11.2323 19.6696C11.4881 19.1216 11.871 18.6526 12.3699 18.2826C12.5322 18.1623 12.5469 17.9235 12.4036 17.7803ZM16 2C9.36807 2 4 7.47887 4 14.25C4 19.1714 6.81796 23.3088 10.736 25.2645C10.9681 25.3803 11.2325 25.1801 11.1933 24.9194C11.0656 24.0711 10.9606 23.2271 10.9036 22.4946C10.8958 22.3942 10.8421 22.304 10.7602 22.2479C8.22089 20.5085 6.55139 17.5439 6.57159 14.1898C6.6033 8.92688 10.8193 4.63878 15.9749 4.62505C21.1853 4.61116 25.4286 8.93421 25.4286 14.25C25.4286 17.6369 23.7058 20.6205 21.108 22.3365C21.0545 23.1041 20.9436 24.0093 20.8068 24.9194C20.7675 25.1801 21.0319 25.3803 21.264 25.2644C25.1729 23.3132 28 19.1821 28 14.25C28 7.47996 22.6329 2 16 2ZM16 10.75C14.1065 10.75 12.5714 12.317 12.5714 14.25C12.5714 16.183 14.1065 17.75 16 17.75C17.8935 17.75 19.4286 16.183 19.4286 14.25C19.4286 12.317 17.8935 10.75 16 10.75Z" fill="white"/>
</svg>
