<svg width="32" height="32" viewBox="0 0 32 32" fill="none" xmlns="http://www.w3.org/2000/svg">
<path d="M23.2183 18.4226C22.9167 18.4226 22.6181 18.3449 22.3549 18.1993C21.9373 17.9687 21.6356 17.5889 21.5044 17.1302C21.3725 16.6715 21.428 16.1895 21.6582 15.7718C22.1125 14.9491 21.8146 13.9094 20.9933 13.4543C20.4755 13.1669 19.813 13.176 19.3031 13.4776C19.1603 13.562 19.1108 13.7455 19.1914 13.8904C19.6347 14.6861 19.3856 15.7002 18.6254 16.1999C18.5112 16.2745 18.353 16.2598 18.2553 16.1632L9.85583 7.87568C9.68669 7.70871 9.60731 7.46834 9.64395 7.23225L9.7734 6.39861C9.79416 6.26527 9.72516 6.13378 9.60426 6.07628L5.49976 4.09829C4.99357 3.85302 4.34572 4.08544 4.10331 4.5882C3.96836 4.87016 3.96531 5.19493 4.09598 5.47995L5.87895 9.36927C5.92841 9.47692 6.03588 9.54665 6.15372 9.54726L6.89195 9.55276C7.08551 9.55399 7.26869 9.62983 7.4073 9.76622L16.8003 19.0317L17.0152 18.8146L16.7966 19.0941C16.7404 19.1302 16.6824 19.1608 16.622 19.1883C16.0394 19.4391 15.3317 19.1522 15.0826 18.5742C15.0405 18.4764 14.9483 18.4073 14.8414 18.3926C14.7346 18.3773 14.6277 18.4213 14.5618 18.5076C13.9316 19.3125 14.0727 20.4825 14.8775 21.1143C15.2914 21.4391 15.8373 21.573 16.3576 21.4789C16.4638 21.4599 16.5719 21.4489 16.6787 21.4489C17.6496 21.4489 18.4391 22.2397 18.4391 23.2122C18.4391 25.852 20.5836 28 23.219 28C25.8556 28 28 25.852 28 23.2122C28 20.5724 25.8555 18.4226 23.2183 18.4226ZM23.8277 21.9296C23.948 22.0489 23.9492 22.2428 23.832 22.362L22.38 23.8385C22.3201 23.8997 22.2408 23.9302 22.1632 23.9302C22.0857 23.9302 22.0087 23.9003 21.9489 23.8416C21.8286 23.7223 21.8274 23.5284 21.9446 23.4091L23.396 21.9327C23.5157 21.8116 23.708 21.8116 23.8277 21.9296ZM22.6499 21.1951L21.1985 22.6715C21.1386 22.7339 21.0592 22.7633 20.9817 22.7633C20.9041 22.7633 20.8266 22.7333 20.7668 22.6746C20.6465 22.5565 20.6452 22.3614 20.7631 22.2422L22.2145 20.7657C22.333 20.6452 22.5271 20.644 22.6462 20.762C22.7665 20.8819 22.7677 21.0758 22.6499 21.1951ZM21.4671 20.0293L20.0157 21.5045C19.9553 21.5669 19.8765 21.5963 19.7983 21.5963C19.7208 21.5963 19.6432 21.5663 19.584 21.5076C19.4637 21.3896 19.4625 21.1944 19.5797 21.0752L21.0312 19.5999C21.1502 19.4782 21.345 19.4782 21.4628 19.5963C21.5844 19.7161 21.5856 19.91 21.4671 20.0293ZM20.285 18.8635L18.8336 20.3388C18.7737 20.3999 18.6944 20.4293 18.6168 20.4293C18.5393 20.4293 18.4617 20.4006 18.4019 20.3418C18.2816 20.2226 18.2804 20.0287 18.3982 19.9094L19.8496 18.433C19.9681 18.3125 20.1635 18.3112 20.2813 18.4293C20.4016 18.5492 20.4028 18.7424 20.285 18.8635Z" fill="white"/>
</svg>
